<svg xmlns="http://www.w3.org/2000/svg" viewBox="0 0 128 128">
    <!-- Steak + fried egg, transparent bg; reads on dark indigo and white -->

    <!-- steak (lower-left) -->
    <g transform="rotate(-7 58 80)">
        <path d="M22 78c-2-15 14-26 36-26 22 0 38 9 38 23 0 15-17 24-39 24-19 0-34-7-35-21Z"
              fill="#EAD7BE" stroke="#5E1417" stroke-width="3.5" stroke-linejoin="round"/>
        <path d="M32 78c-1-10 11-18 28-18 17 0 29 6 29 16 0 11-13 17-30 17-15 0-26-5-27-15Z"
              fill="#B3262A"/>
        <g fill="none" stroke="#E7C9B6" stroke-width="2.8" stroke-linecap="round" opacity="0.85">
            <path d="M48 70c4 3 5 9 1 14"/>
            <path d="M66 70c4 3 5 9 1 14"/>
        </g>
    </g>

    <!-- fried egg (upper-right, overlapping) -->
    <g>
        <path d="M70 22c11-6 24 0 25 11 8 0 14 7 12 16-2 8-10 12-18 11-3 8-12 12-21 9-9-3-13-12-10-20-7-4-9-13-4-20 4-6 11-8 16-7Z"
              fill="#FCFAF2" stroke="#D9C19A" stroke-width="2.5" stroke-linejoin="round"/>
        <circle cx="84" cy="44" r="11" fill="#F4B23C"/>
        <circle cx="80.5" cy="40.5" r="3.5" fill="#F8CE7A"/>
    </g>
</svg>
